<?xml version="1.0" encoding="UTF-8" standalone="no"?>
<!DOCTYPE svg PUBLIC "-//W3C//DTD SVG 20010904//EN"
              "http://www.w3.org/TR/2001/REC-SVG-20010904/DTD/svg10.dtd">

<svg xmlns="http://www.w3.org/2000/svg"
     width="0.213333in" height="0.213333in"
     viewBox="0 0 64 64">
  <path id="Zaznaczenie"
        fill="#d3d3d3"
        d="M 2.00,2.00
           C 2.00,2.00 31.00,2.00 31.00,2.00
             31.00,2.00 31.00,62.00 31.00,62.00
             31.00,62.00 2.00,62.00 2.00,62.00
             2.00,62.00 2.00,2.00 2.00,2.00 Z
           M 30.00,3.00
           C 30.00,3.00 3.00,3.00 3.00,3.00
             3.00,3.00 3.00,61.00 3.00,61.00
             3.00,61.00 30.00,61.00 30.00,61.00
             30.00,61.00 30.00,3.00 30.00,3.00 Z
           M 33.00,2.00
           C 33.00,2.00 62.00,2.00 62.00,2.00
             62.00,2.00 62.00,62.00 62.00,62.00
             62.00,62.00 33.00,62.00 33.00,62.00
             33.00,62.00 33.00,2.00 33.00,2.00 Z
           M 61.00,3.00
           C 61.00,3.00 34.00,3.00 34.00,3.00
             34.00,3.00 34.00,61.00 34.00,61.00
             34.00,61.00 61.00,61.00 61.00,61.00
             61.00,61.00 61.00,3.00 61.00,3.00 Z" />
</svg>
