<svg xmlns="http://www.w3.org/2000/svg" width="144" height="128" viewBox="0 0 144 128">
  <path id="logo" style="fill:#39b54a;" d="M47.669,42.237,26.92,2.67a2.068,2.068,0,0,0-.4-.528L5.86,41.183,26.3,32.48l-1.011-.442a2.946,2.946,0,0,0-1.231-.262,2.893,2.893,0,0,0-1.187.262L9.991,37.448,23.71,11.6l1.67-3.473a1.265,1.265,0,0,1,2.244-.047L46,43.118a1.347,1.347,0,0,1-.176,1.452,1.273,1.273,0,0,1-.924.4.9.9,0,0,1-.484-.133l-15.21-6.376-2.2,1.056,16.661,7.08a3.154,3.154,0,0,0,4-4.355ZM29.689,35.9l12.485,5.278L26.567,11.42l-1.011,2.108,12.53,23.919L29.469,33.8,3.619,44.832a1.031,1.031,0,0,1-.485.133,1.1,1.1,0,0,1-.923-.442,1.181,1.181,0,0,1-.176-1.4L24.281,1.043A.161.161,0,0,0,24.151,1a3.22,3.22,0,0,0-2.772,1.67L.365,42.237A3.131,3.131,0,0,0,.805,45.8a3.164,3.164,0,0,0,2.33,1.014,3.842,3.842,0,0,0,1.187-.22L22,39.16l.133-.086,6.5-3.121A1.48,1.48,0,0,1,29.689,35.9Z" transform="translate(48 17)"/>
  <path id="Path_1" style="fill:#39b54a;" data-name="Path 1" d="M142-112H2a2,2,0,0,0-2,2v4.01a2,2,0,0,0,2,2.005H8v71.945a8.019,8.019,0,0,0,8,8.022H68V-11.73L46.585,9.742a2.01,2.01,0,0,0,0,2.835l2.828,2.835a2,2,0,0,0,2.827,0L72-4.4l19.758,19.81a2,2,0,0,0,2.827,0l2.828-2.835a2.01,2.01,0,0,0,0-2.835L76-11.73V-24.012h52a8.019,8.019,0,0,0,8-8.022v-71.943h6a2,2,0,0,0,2-2V-110A2,2,0,0,0,142-112ZM128-32H16v-72H128Z" transform="translate(0 112)"/>
</svg>
